<svg width="100" height="100" viewBox="0 0 100 100" fill="none" xmlns="http://www.w3.org/2000/svg">
<path d="M70.6477 68.7956C68.2738 68.6619 60.7451 67.713 54 67.0405" stroke="black" stroke-width="6" stroke-linecap="round"/>
<path d="M24.5 62.8406C21.1474 62.8664 17.9811 62.8221 15.2333 62.6851M15.2333 62.6851L11.9993 59.2286M15.2333 62.6851L8.00003 67.7645" stroke="black" stroke-width="6" stroke-linecap="round"/>
<path d="M57.5 62.0122C23.9341 81.2512 15.2211 46.8975 27.2918 43.6234C27.6015 43.5394 27.9321 43.5122 28.253 43.5122H36.374C38.3646 43.5122 40.0294 42.0346 40.6877 40.156C42.8274 34.0498 45.3444 26 66.4999 26C93.1566 26 98.4999 62.0122 81.8432 62.0122C65.1865 62.0122 69.5099 47.0122 69.8432 39.5122" stroke="black" stroke-width="6" stroke-linecap="round"/>
<circle cx="54" cy="46.5" r="3" fill="black"/>
<ellipse cx="26" cy="46.0122" rx="6" ry="5.5" fill="black"/>
</svg>
