<svg width="242" height="64" viewBox="0 0 242 64" fill="none" xmlns="http://www.w3.org/2000/svg">
<path d="M74.6477 53.7956C72.2738 53.6619 64.7451 52.713 58 52.0405" stroke="black" stroke-width="6" stroke-linecap="round"/>
<path d="M28.5 47.8406C25.1474 47.8664 21.9811 47.8221 19.2333 47.6851M19.2333 47.6851L15.9993 44.2286M19.2333 47.6851L12 52.7645" stroke="black" stroke-width="6" stroke-linecap="round"/>
<path d="M61.5 47.0122C27.9341 66.2512 19.2211 31.8975 31.2918 28.6234C31.6015 28.5394 31.9321 28.5122 32.253 28.5122H40.374C42.3646 28.5122 44.0294 27.0346 44.6877 25.156C46.8274 19.0498 49.3444 11 70.4999 11C97.1566 11 102.5 47.0122 85.8432 47.0122C69.1865 47.0122 73.5099 32.0122 73.8432 24.5122" stroke="black" stroke-width="6" stroke-linecap="round"/>
<circle cx="58" cy="31.5" r="3" fill="black"/>
<ellipse cx="30" cy="31.0122" rx="6" ry="5.5" fill="black"/>
<path d="M110.24 18.54H129.76V23.8072H116.151V31.6722H129.569V36.7725H116.151V44.7328H129.76V50H110.24V18.54ZM142.57 50.572C140.711 50.572 139.075 50.1271 137.661 49.2373C136.262 48.3317 135.166 47.1003 134.372 45.5432C133.593 43.9702 133.204 42.1986 133.204 40.2283C133.204 38.2581 133.593 36.4944 134.372 34.9373C135.166 33.3643 136.262 32.125 137.661 31.2193C139.075 30.3137 140.711 29.8608 142.57 29.8608C143.889 29.8608 145.057 30.0753 146.074 30.5043C147.107 30.9333 147.933 31.4418 148.552 32.0297C149.172 32.6176 149.538 33.1419 149.649 33.6027V17.2053H155.726V50H149.72V46.5918C149.466 47.1479 148.997 47.7358 148.314 48.3555C147.631 48.9752 146.797 49.4995 145.812 49.9285C144.826 50.3575 143.746 50.572 142.57 50.572ZM144.286 45.7577C145.303 45.7577 146.217 45.5273 147.027 45.0665C147.837 44.5898 148.473 43.9384 148.934 43.1122C149.41 42.2701 149.649 41.3088 149.649 40.2283C149.649 39.1479 149.41 38.1946 148.934 37.3683C148.473 36.5262 147.837 35.8668 147.027 35.3902C146.217 34.9135 145.303 34.6752 144.286 34.6752C143.349 34.6752 142.491 34.9135 141.712 35.3902C140.934 35.8509 140.306 36.5024 139.829 37.3445C139.369 38.1707 139.138 39.132 139.138 40.2283C139.138 41.3247 139.369 42.2939 139.829 43.136C140.306 43.9622 140.934 44.6057 141.712 45.0665C142.491 45.5273 143.349 45.7577 144.286 45.7577ZM175.457 50V46.5918C175.314 46.9414 174.948 47.4339 174.36 48.0695C173.772 48.7051 172.978 49.285 171.977 49.8093C170.992 50.3178 169.832 50.572 168.497 50.572C166.622 50.572 164.962 50.1271 163.516 49.2373C162.07 48.3317 160.934 47.1003 160.108 45.5432C159.298 43.9702 158.892 42.1986 158.892 40.2283C158.892 38.2581 159.298 36.4944 160.108 34.9373C160.934 33.3643 162.07 32.125 163.516 31.2193C164.962 30.3137 166.622 29.8608 168.497 29.8608C169.8 29.8608 170.928 30.0833 171.882 30.5282C172.851 30.9572 173.629 31.4656 174.217 32.0535C174.821 32.6255 175.21 33.1419 175.385 33.6027V30.4328H181.391V50H175.457ZM164.827 40.2283C164.827 41.3247 165.073 42.2939 165.566 43.136C166.058 43.9622 166.71 44.6057 167.52 45.0665C168.33 45.5273 169.212 45.7577 170.166 45.7577C171.167 45.7577 172.056 45.5273 172.835 45.0665C173.613 44.5898 174.225 43.9384 174.67 43.1122C175.131 42.2701 175.361 41.3088 175.361 40.2283C175.361 39.1479 175.131 38.1946 174.67 37.3683C174.225 36.5262 173.613 35.8668 172.835 35.3902C172.056 34.9135 171.167 34.6752 170.166 34.6752C169.212 34.6752 168.33 34.9135 167.52 35.3902C166.71 35.8509 166.058 36.5024 165.566 37.3445C165.073 38.1707 164.827 39.132 164.827 40.2283ZM198.849 29.8608C200.184 29.8608 201.487 30.1389 202.758 30.695C204.029 31.2352 205.07 32.1012 205.88 33.2928C206.706 34.4845 207.119 36.0416 207.119 37.9642V50H201.042V39.0128C201.042 37.4081 200.661 36.2164 199.898 35.4378C199.151 34.6593 198.166 34.27 196.943 34.27C196.148 34.27 195.386 34.4924 194.655 34.9373C193.94 35.3663 193.352 35.9701 192.891 36.7487C192.446 37.5113 192.224 38.3852 192.224 39.3703V50H186.17V30.4328H192.224V33.555C192.398 33.0148 192.796 32.4587 193.415 31.8867C194.035 31.3147 194.821 30.838 195.775 30.4567C196.728 30.0594 197.753 29.8608 198.849 29.8608ZM216.328 41.563C216.375 42.4528 216.614 43.2472 217.043 43.9463C217.472 44.6454 218.091 45.1936 218.902 45.5908C219.728 45.9881 220.713 46.1867 221.857 46.1867C222.89 46.1867 223.795 46.0596 224.574 45.8053C225.368 45.5511 226.036 45.2413 226.576 44.8758C227.132 44.4945 227.545 44.1291 227.815 43.7795L230.318 47.4975C229.873 48.0536 229.277 48.57 228.53 49.0467C227.799 49.5074 226.862 49.8729 225.718 50.143C224.59 50.429 223.176 50.572 221.476 50.572C219.331 50.572 217.448 50.1509 215.827 49.3088C214.207 48.4667 212.943 47.2512 212.038 45.6623C211.132 44.0734 210.679 42.1827 210.679 39.99C210.679 38.0833 211.084 36.3673 211.895 34.842C212.705 33.3008 213.881 32.0853 215.422 31.1955C216.979 30.3057 218.846 29.8608 221.023 29.8608C223.073 29.8608 224.844 30.2581 226.338 31.0525C227.847 31.8311 229.015 32.9751 229.841 34.4845C230.667 35.9939 231.081 37.8371 231.081 40.0138C231.081 40.1409 231.073 40.4031 231.057 40.8003C231.057 41.1817 231.041 41.4359 231.009 41.563H216.328ZM225.408 37.8212C225.392 37.3127 225.233 36.7646 224.932 36.1767C224.646 35.5888 224.193 35.0883 223.573 34.6752C222.953 34.2621 222.127 34.0555 221.094 34.0555C220.062 34.0555 219.212 34.2541 218.544 34.6513C217.893 35.0486 217.4 35.5411 217.067 36.129C216.733 36.701 216.542 37.2651 216.495 37.8212H225.408Z" fill="black"/>
</svg>
