<svg width="107" height="64" viewBox="0 0 107 64" fill="none" xmlns="http://www.w3.org/2000/svg">
<path d="M74.6477 53.7956C72.2738 53.6619 64.7451 52.713 58 52.0405" stroke="black" stroke-width="6" stroke-linecap="round"/>
<path d="M28.5 47.8406C25.1474 47.8664 21.9811 47.8221 19.2333 47.6851M19.2333 47.6851L15.9993 44.2286M19.2333 47.6851L12 52.7645" stroke="black" stroke-width="6" stroke-linecap="round"/>
<path d="M61.5 47.0122C27.9341 66.2512 19.2211 31.8975 31.2918 28.6234C31.6015 28.5394 31.9321 28.5122 32.253 28.5122H40.374C42.3646 28.5122 44.0294 27.0346 44.6877 25.156C46.8274 19.0498 49.3444 11 70.4999 11C97.1566 11 102.5 47.0122 85.8432 47.0122C69.1865 47.0122 73.5099 32.0122 73.8432 24.5122" stroke="black" stroke-width="6" stroke-linecap="round"/>
<circle cx="58" cy="31.5" r="3" fill="black"/>
<ellipse cx="30" cy="31.0122" rx="6" ry="5.5" fill="black"/>
</svg>
